<svg id="logo" width="628px" height="154px" viewBox="0 0 628 316" version="1.1" xmlns="http://www.w3.org/2000/svg" xmlns:xlink="http://www.w3.org/1999/xlink" xmlns:sketch="http://www.bohemiancoding.com/sketch/ns">
        <g id="kansas-+-logo" sketch:type="MSLayerGroup">
            <g id="kansas" sketch:type="MSShapeGroup">
                <g id="Kansas">
                    <path d="M0.723565217,299.213862 L271.631843,16.9386897 L571.785809,9.8532069 L588.168417,26.1980345 L590.210783,31.1096552 L577.481496,36.0539655 L590.453791,79.1961379 L595.59793,77.9294138 L611.980539,94.2742414 L607.685565,103.075931 L627.279165,307.552448 L17.1061739,315.55869 L0.723565217,299.213862 Z" id="Shape" fill="#EA504E"></path>
                    <path d="M4.28678261,0.457655172 L255.249235,0.593862069 L534.108539,1.01065517 L553.500087,7.09093103 L571.785809,9.8532069 L573.828174,14.7648276 L561.098887,19.7091379 L577.814609,75.2978966 L595.59793,77.9294138 L591.302957,86.7311034 L610.896557,291.207621 L0.723565217,299.213862 L4.28678261,0.457655172 Z" id="Shape" fill="#147FD7"></path>
                </g>
            </g>
            <g id="logo" transform="translate(74.000000, 58.000000)" sketch:type="MSShapeGroup">
                <g id="swish-bottom" transform="translate(21.000000, 124.000000)" fill="#FFFFFF">
                    <path d="M459,22.5 C459,22.5 457.2,22.1 453.9,21.4 C452.2,21 450.2,20.7 447.8,20.2 C445.4,19.8 442.6,19.3 439.5,18.8 C433.3,17.7 425.7,16.8 417,15.8 C408.3,14.8 398.4,14 387.7,13.4 C377,12.8 365.3,12.4 353,12.1 C346.8,12 340.5,12 334,12 C327.5,12 320.9,12.1 314.2,12.2 C300.8,12.5 286.9,12.9 272.8,13.7 C258.7,14.4 244.4,15.3 230.1,16.4 C222.9,17 215.8,17.6 208.7,18.2 C201.6,18.8 194.5,19.5 187.4,20.2 C183.9,20.6 180.4,20.9 176.9,21.3 C173.4,21.7 170,22 166.5,22.4 C163,22.8 159.6,23.2 156.2,23.6 C152.8,24 149.4,24.4 146,24.7 C132.5,26 119.4,27 107,27.4 C100.8,27.6 94.7,27.8 88.9,27.8 C83,27.9 77.4,27.8 72,27.7 C61.1,27.4 51.2,26.7 42.4,25.8 C33.6,24.7 25.9,23.5 19.7,21.9 C16.6,21.1 13.8,20.3 11.4,19.5 C9,18.7 7,17.8 5.4,17.1 C3.8,16.3 2.6,15.7 1.9,15.2 C1.1,14.7 0.7,14.4 0.7,14.4 C0.7,14.4 1.1,14.6 2,14.9 C2.8,15.2 4.1,15.6 5.7,16.1 C7.3,16.5 9.4,17 11.8,17.3 C14.2,17.7 17,18 20.1,18.3 C23.2,18.5 26.7,18.7 30.4,18.8 C34.2,18.9 38.2,18.9 42.6,18.9 C51.3,18.8 61.2,18.4 71.9,17.8 C77.3,17.5 82.8,17.1 88.6,16.6 C94.4,16.1 100.4,15.6 106.5,15.1 C118.8,14 131.7,12.6 145.1,11 C151.8,10.2 158.6,9.4 165.5,8.5 C172.4,7.7 179.5,6.9 186.5,6.3 C193.6,5.6 200.7,5 207.9,4.4 C215.1,3.8 222.3,3.3 229.5,2.9 C243.9,2 258.4,1.4 272.6,1.1 C286.8,0.8 300.8,0.8 314.4,1.1 C321.2,1.3 327.8,1.5 334.4,1.8 C340.9,2.1 347.3,2.5 353.5,3 C365.9,3.9 377.6,5.1 388.4,6.5 C399.2,8 409,9.6 417.7,11.3 C426.4,13 433.9,14.8 440.1,16.5 C443.2,17.3 445.9,18.2 448.3,18.9 C450.7,19.7 452.7,20.3 454.3,20.8 C457.3,21.9 459,22.5 459,22.5 L459,22.5 Z" id="Shape"></path>
                </g>
                <g id="bernie" fill="#FFFFFF">
                    <path d="M110.7,85.8 C110.7,72.1 103,64.3 87,62 C100.3,59.1 106.7,51.9 106.7,40.4 C106.7,23.2 96,16.3 69.2,16.3 L25.9,16.3 L25.9,27.1 L33.3,27.1 C35.4,27.1 36.1,28.1 36.1,31.1 L36.1,97 C36.1,100 35.4,101.2 33.3,101.2 L25.9,101.2 L25.9,112 L69,112 C98.1,112.1 110.7,104.2 110.7,85.8 L110.7,85.8 Z M56.4,27.1 L68.6,27.1 C81.1,27.1 85.5,31.1 85.5,42.8 C85.5,53.8 79.7,58.4 67.7,58.4 L56.4,58.4 L56.4,27.1 L56.4,27.1 Z M56.4,67.8 L70.8,67.8 C83.4,67.8 89,72.4 89,84.8 C89,96.8 83.8,101.2 69.9,101.2 L56.4,101.2 L56.4,67.8 L56.4,67.8 Z" id="b"></path>
                    <path d="M349,30.1 L358.5,23 L368,30.1 L364.4,18.6 L373.9,11.5 L362.2,11.5 L358.5,0 L354.9,11.5 L343.2,11.5 L352.7,18.6 L349,30.1 Z" id="star"></path>
                    <path d="M452.8,122.7 C451.2,122.2 449.2,121.6 446.8,120.9 C444.4,120.2 441.7,119.4 438.6,118.7 C432.9,117.2 425.9,115.7 418,114.1 C418.9,114.1 419.8,114.2 420.7,114.2 C439.4,114.2 449.2,104.4 453.2,92.1 L441.9,86.7 C438.5,96 432.6,101.5 422.3,101.5 C408.8,101.5 402.1,92 401.7,77.7 L454.2,77.7 L454.2,73.8 C454.2,48.4 441.6,33.2 418.8,33.2 C396.6,33.2 381.3,49.6 381.3,73.6 C381.3,92.2 389.5,106.7 405.8,112 C399.9,111.1 393.7,110.2 387,109.3 C385.1,109.1 383.1,108.8 381.1,108.6 L381.1,100.2 L374.9,100.2 C373.3,100.2 372.5,99.4 372.5,96.1 L372.5,33.7 C369.1,34.5 362.4,35.3 355.2,35.3 L343.3,35.3 L343.3,47.1 L349.1,47.1 C351.6,47.1 352.4,48.5 352.4,53.4 L352.4,96.2 C352.4,99.5 351.7,100.3 350,100.3 L343.3,100.3 L343.3,105.6 C342.6,105.6 341.8,105.5 341,105.5 L341,100.3 L334.5,100.3 C332.9,100.3 332,99.8 332,96.2 L332,61.9 C332,42.7 323.8,33.2 308.6,33.2 C297,33.2 288.7,38.4 284.1,49 L284.1,33.7 C280.8,34.5 274.2,35.3 266.9,35.3 L250,35.3 C253.9,37.1 256.6,44 257,47.2 L261.7,47.2 C263.6,47.2 264.2,48.1 264.2,51.9 L264.2,96.2 C264.2,99.8 263.3,100.3 261.7,100.3 L255.2,100.3 L255.2,105.3 C246.3,105.6 237.4,106.1 228.4,106.7 C228,106.7 227.7,106.8 227.3,106.8 L227.3,100.3 L220.3,100.3 C218.7,100.3 217.8,99.8 217.8,96.2 L217.8,72 C217.8,55.9 222.8,46.3 232.6,46.3 C234.8,46.3 236.5,46.9 237.5,47.9 C233.1,49.3 230.4,53.7 230.4,58 C230.4,63.7 235,68.4 240.5,68.4 C249,68.4 254.6,61.8 254.6,51.8 C254.6,40.4 247.9,33.2 237.3,33.2 C228.7,33.2 221.1,38.3 217.7,50.6 L217.7,33.7 C214.3,34.5 207.6,35.3 200.4,35.3 L188.4,35.3 L188.4,47.1 L195.4,47.1 C197.3,47.1 197.9,48 197.9,51.8 L197.9,96.1 C197.9,99.7 197,100.2 195.4,100.2 L188.9,100.2 L188.9,109.9 C187.8,110 186.7,110.1 185.6,110.2 C178.8,110.9 172,111.6 165.3,112.4 C176.2,109.1 182.5,101.3 185.5,92 L174.2,86.6 C170.8,95.9 164.9,101.4 154.6,101.4 C141.1,101.4 134.4,91.9 134,77.6 L186.5,77.6 L186.5,73.7 C186.5,48.3 173.9,33.1 151.1,33.1 C128.9,33.1 113.6,49.5 113.6,73.5 C113.6,96.7 126.3,113.4 151.6,114 C149.1,114.3 146.7,114.6 144.2,114.9 C137.5,115.7 131,116.4 124.5,117.1 C118.1,117.8 111.8,118.4 105.6,118.9 C93.3,119.9 81.7,120.9 71,121.3 C65.6,121.5 60.5,121.8 55.6,121.9 C50.7,122 46.1,122.1 41.7,122.1 C37.3,122.1 33.3,122 29.5,121.9 C25.7,121.7 22.3,121.5 19.2,121.2 C13,120.6 8.1,119.6 4.9,118.7 C3.3,118.2 2,117.8 1.2,117.4 C0.4,117.2 0,117 0,117 C0,117 0.4,117.3 1.2,117.7 C2,118.2 3.2,118.8 4.8,119.5 C6.4,120.2 8.4,121 10.8,121.8 C13.2,122.6 15.9,123.3 19.1,124 C25.3,125.4 33,126.5 41.8,127.5 C50.6,128.3 60.5,128.9 71.4,129 C82.2,129.1 94,129 106.4,128.4 C118.8,127.8 131.8,126.9 145.3,125.5 C152.1,124.8 158.9,124 165.7,123.2 C169.1,122.8 172.6,122.4 176.1,122.1 C179.6,121.7 183.1,121.4 186.6,121 C200.7,119.6 215,118.3 229.2,117.2 C243.5,116.1 257.8,115.1 271.9,114.5 C286,113.8 299.9,113.4 313.3,113.2 C326.7,113 339.7,113.1 352,113.3 C364.3,113.5 376,114 386.7,114.8 C397.4,115.5 407.3,116.4 416,117.4 C424.7,118.4 432.3,119.5 438.5,120.6 C441.6,121.1 444.4,121.7 446.8,122.1 C449.2,122.6 451.2,123 452.9,123.4 C456.2,124.2 458,124.6 458,124.6 C458,124.6 456,123.8 452.8,122.7 L452.8,122.7 Z M418.7,45.3 C429.2,45.3 433.7,51.3 434,66.9 L401.4,66.9 C402.2,51.8 408.2,45.3 418.7,45.3 L418.7,45.3 Z M151.1,45.3 C161.6,45.3 166.1,51.3 166.4,66.9 L133.8,66.9 C134.7,51.8 140.6,45.3 151.1,45.3 L151.1,45.3 Z M292.6,104.4 L292.6,100.3 L286.8,100.3 C285.2,100.3 284.3,99.8 284.3,96.2 L284.3,72.2 C284.3,55 290.1,47.1 300,47.1 C308.2,47.1 311.9,51.7 311.9,62.4 L311.9,96.2 C311.9,99.8 311,100.3 309.4,100.3 L303.6,100.3 L303.6,104.4 L292.6,104.4 L292.6,104.4 Z" id="ernie"></path>
                </g>
                <path d="M454.1,182.3 L310.2,182.3" id="Shape" fill="#FFFFFF" stroke="#FFFFFF" stroke-width="2"></path>
                <path d="M169.8,182.3 L25.9,182.3" id="Shape" fill="#FFFFFF" stroke="#FFFFFF" stroke-width="2"></path>
                <g id="2016" transform="translate(185.000000, 161.000000)" fill="#FFFFFF">
                    <path d="M0.8,37.3 L0.6,31.1 C3.3,28.5 5.6,26.4 7.5,24.6 C9.4,22.8 11,21.2 12.3,19.9 C13.6,18.5 14.5,17.3 15.1,16.1 C15.7,15 16,13.8 16,12.5 C16,11.2 15.6,10.1 14.7,9.2 C13.8,8.3 12.6,7.9 11.2,7.9 C9.8,7.9 8.4,8.2 7,8.9 C5.6,9.5 4.4,10.3 3.3,11.3 L0.6,4.9 C2.1,3.7 3.9,2.7 6,1.9 C8.1,1.1 10.3,0.7 12.7,0.7 C14.7,0.7 16.4,1 17.9,1.5 C19.4,2 20.6,2.8 21.7,3.7 C22.7,4.6 23.5,5.8 24,7 C24.5,8.3 24.8,9.6 24.8,11.1 C24.8,12.6 24.5,14.1 23.9,15.5 C23.3,16.9 22.4,18.4 21.2,19.8 C20,21.3 18.5,22.8 16.7,24.4 C14.9,26 12.8,27.9 10.4,29.9 L25.5,29.9 L25.7,37.1 L0.8,37.1 L0.8,37.3 Z" id="two"></path>
                    <path d="M55.2,19.4 C55.2,25.4 54.1,30 51.8,33.3 C49.5,36.6 46.2,38.2 41.9,38.2 C37.6,38.2 34.3,36.6 32.2,33.4 C30.1,30.2 29,25.6 29,19.6 C29,13.6 30.1,8.9 32.4,5.7 C34.7,2.5 37.9,0.8 42.2,0.8 C46.5,0.8 49.8,2.4 51.9,5.6 C54.2,8.8 55.2,13.4 55.2,19.4 L55.2,19.4 Z M47.2,19.6 C47.2,17.2 47.1,15.1 46.8,13.5 C46.5,11.9 46.2,10.6 45.7,9.7 C45.2,8.8 44.7,8.1 44.1,7.7 C43.5,7.3 42.8,7.1 42.1,7.1 C41.4,7.1 40.8,7.3 40.2,7.7 C39.6,8.1 39.1,8.7 38.6,9.7 C38.2,10.6 37.8,11.9 37.5,13.5 C37.2,15.1 37.1,17.1 37.1,19.5 C37.1,21.9 37.2,23.8 37.5,25.4 C37.8,27 38.2,28.2 38.6,29.2 C39.1,30.1 39.6,30.8 40.2,31.2 C40.8,31.6 41.5,31.8 42.2,31.8 C42.9,31.8 43.5,31.6 44.1,31.2 C44.7,30.8 45.2,30.2 45.7,29.3 C46.1,28.4 46.5,27.1 46.7,25.6 C47.1,23.9 47.2,22 47.2,19.6 L47.2,19.6 Z" id="zero"></path>
                    <path d="M67.4,10.1 L59.2,11.8 L59,4.4 L76.3,0.9 L76.3,37.3 L67.4,37.3 L67.4,10.1 L67.4,10.1 Z" id="one"></path>
                    <path d="M83.1,22.3 C83.1,19.6 83.6,17.1 84.5,14.6 C85.4,12.2 86.8,10 88.6,8 C90.4,6 92.6,4.4 95.2,3.1 C97.8,1.8 100.7,0.8 104,0.3 L105.9,6.7 C102.2,7.4 99,8.6 96.4,10.4 C93.8,12.2 92.2,14.5 91.4,17.3 L91.6,17.5 C92.7,16.6 94,15.8 95.3,15.2 C96.7,14.5 98.1,14.2 99.8,14.2 C101.2,14.2 102.4,14.5 103.6,15 C104.8,15.5 105.8,16.2 106.7,17.2 C107.6,18.1 108.3,19.3 108.8,20.6 C109.3,21.9 109.6,23.5 109.6,25.2 C109.6,27 109.3,28.7 108.7,30.3 C108.1,31.9 107.3,33.3 106.2,34.5 C105.1,35.7 103.7,36.6 102.1,37.3 C100.5,38 98.6,38.3 96.5,38.3 C94.4,38.3 92.5,37.9 90.8,37.1 C89.1,36.3 87.7,35.2 86.6,33.8 C85.5,32.4 84.6,30.7 84,28.8 C83.4,26.7 83.1,24.6 83.1,22.3 L83.1,22.3 Z M91.4,24.9 C91.4,25.8 91.5,26.7 91.7,27.5 C91.9,28.3 92.2,29.1 92.7,29.7 C93.1,30.3 93.7,30.8 94.4,31.2 C95.1,31.6 95.8,31.8 96.7,31.8 C98.1,31.8 99.3,31.3 100.2,30.2 C101.1,29.1 101.5,27.7 101.5,25.8 C101.5,24.1 101.1,22.8 100.2,21.9 C99.3,20.9 98.2,20.5 96.7,20.5 C95.7,20.5 94.7,20.7 93.8,21.2 C92.9,21.6 92.2,22.1 91.7,22.6 C91.5,23.3 91.4,24.1 91.4,24.9 L91.4,24.9 Z" id="six"></path>
                </g>
            </g>
        </g>
</svg>